<?xml version="1.0" encoding="UTF-8" standalone="no"?>
<!-- Created with Inkscape (http://www.inkscape.org/) -->

<svg
   xmlns:dc="http://purl.org/dc/elements/1.1/"
   xmlns:cc="http://creativecommons.org/ns#"
   xmlns:rdf="http://www.w3.org/1999/02/22-rdf-syntax-ns#"
   xmlns:svg="http://www.w3.org/2000/svg"
   xmlns="http://www.w3.org/2000/svg"
   xmlns:xlink="http://www.w3.org/1999/xlink"
   xmlns:sodipodi="http://sodipodi.sourceforge.net/DTD/sodipodi-0.dtd"
   xmlns:inkscape="http://www.inkscape.org/namespaces/inkscape"
   width="744.09448819"
   height="1052.3622047"
   id="svg2"
   version="1.1"
   inkscape:version="0.48.2 r9819"
   sodipodi:docname="logo_cat.svg"
   inkscape:export-filename="/home/torben/projects/teamadminhelper/ascetic/logo_cat.png"
   inkscape:export-xdpi="3.3773324"
   inkscape:export-ydpi="3.3773324">
  <defs
     id="defs4">
    <linearGradient
       id="linearGradient4154">
      <stop
         style="stop-color:#ff0000;stop-opacity:1;"
         offset="0"
         id="stop4156" />
      <stop
         id="stop4164"
         offset="0.5"
         style="stop-color:#ff0000;stop-opacity:1;" />
      <stop
         style="stop-color:#ffff00;stop-opacity:1;"
         offset="0.75"
         id="stop4166" />
      <stop
         style="stop-color:#fff900;stop-opacity:1;"
         offset="1"
         id="stop4158" />
    </linearGradient>
    <linearGradient
       inkscape:collect="always"
       xlink:href="#linearGradient4154"
       id="linearGradient4162"
       x1="543.76239"
       y1="599.55322"
       x2="674.21515"
       y2="599.55322"
       gradientUnits="userSpaceOnUse" />
    <linearGradient
       gradientTransform="translate(97.926129,57.064308)"
       inkscape:collect="always"
       xlink:href="#linearGradient4154-1"
       id="linearGradient4162-3"
       x1="543.76239"
       y1="599.55322"
       x2="674.21515"
       y2="599.55322"
       gradientUnits="userSpaceOnUse" />
    <linearGradient
       id="linearGradient4154-1">
      <stop
         style="stop-color:#ff0000;stop-opacity:1;"
         offset="0"
         id="stop4156-3" />
      <stop
         id="stop4164-3"
         offset="0.5"
         style="stop-color:#ff0000;stop-opacity:1;" />
      <stop
         style="stop-color:#ffff00;stop-opacity:1;"
         offset="0.75"
         id="stop4166-0" />
      <stop
         style="stop-color:#fff900;stop-opacity:1;"
         offset="1"
         id="stop4158-9" />
    </linearGradient>
    <filter
       id="filter5100"
       inkscape:label="Drop shadow"
       width="1.5"
       height="1.5"
       x="-.25"
       y="-.25">
      <feGaussianBlur
         id="feGaussianBlur5102"
         in="SourceAlpha"
         stdDeviation="2"
         result="blur" />
      <feColorMatrix
         id="feColorMatrix5104"
         result="bluralpha"
         type="matrix"
         values="1 0 0 0 0 0 1 0 0 0 0 0 1 0 0 0 0 0 0.5 0 " />
      <feOffset
         id="feOffset5106"
         in="bluralpha"
         dx="4"
         dy="4"
         result="offsetBlur" />
      <feMerge
         id="feMerge5108">
        <feMergeNode
           id="feMergeNode5110"
           in="offsetBlur" />
        <feMergeNode
           id="feMergeNode5112"
           in="SourceGraphic" />
      </feMerge>
    </filter>
    <filter
       id="filter5164"
       inkscape:label="Drop shadow"
       width="1.5"
       height="1.5"
       x="-.25"
       y="-.25">
      <feGaussianBlur
         id="feGaussianBlur5166"
         in="SourceAlpha"
         stdDeviation="2"
         result="blur" />
      <feColorMatrix
         id="feColorMatrix5168"
         result="bluralpha"
         type="matrix"
         values="1 0 0 0 0 0 1 0 0 0 0 0 1 0 0 0 0 0 0.5 0 " />
      <feOffset
         id="feOffset5170"
         in="bluralpha"
         dx="4"
         dy="4"
         result="offsetBlur" />
      <feMerge
         id="feMerge5172">
        <feMergeNode
           id="feMergeNode5174"
           in="offsetBlur" />
        <feMergeNode
           id="feMergeNode5176"
           in="SourceGraphic" />
      </feMerge>
    </filter>
  </defs>
  <sodipodi:namedview
     id="base"
     pagecolor="#ffffff"
     bordercolor="#666666"
     borderopacity="1.0"
     inkscape:pageopacity="0.0"
     inkscape:pageshadow="2"
     inkscape:zoom="1.88"
     inkscape:cx="578.10143"
     inkscape:cy="459.75115"
     inkscape:document-units="px"
     inkscape:current-layer="layer1"
     showgrid="false"
     inkscape:window-width="1366"
     inkscape:window-height="744"
     inkscape:window-x="0"
     inkscape:window-y="24"
     inkscape:window-maximized="1" />
  <metadata
     id="metadata7">
    <rdf:RDF>
      <cc:Work
         rdf:about="">
        <dc:format>image/svg+xml</dc:format>
        <dc:type
           rdf:resource="http://purl.org/dc/dcmitype/StillImage" />
        <dc:title></dc:title>
      </cc:Work>
    </rdf:RDF>
  </metadata>
  <g
     inkscape:label="Layer 1"
     inkscape:groupmode="layer"
     id="layer1">
    <path
       sodipodi:type="arc"
       style="fill:#ffff00;fill-opacity:1"
       id="path2996"
       sodipodi:cx="637.28448"
       sodipodi:cy="576.71564"
       sodipodi:rx="0.21551724"
       sodipodi:ry="6.6810346"
       d="m 637.5,576.71564 a 0.21551724,6.6810346 0 1 1 -0.43103,0 0.21551724,6.6810346 0 1 1 0.43103,0 z" />
    <path
       style="fill:#ff6600;stroke:#000000;stroke-width:1px;stroke-linecap:butt;stroke-linejoin:miter;stroke-opacity:1"
       d="m 395.5559,685.69127 c -1.28554,3.42284 0.32468,5.10822 1.42045,7.10227 0.1644,0.9519 0.77787,2.38131 2.93738,4.82954 0.80424,1.3738 1.37902,3.16467 3.59672,3.12501 0.28681,0.24074 -1.28606,2.08476 10.14145,1.40978 1.23284,-0.14546 2.46567,0.79652 3.69851,3.15165 l 2.67462,4.974 c 2.85195,4.79256 2.01849,9.78613 2.62664,14.12993 7.41464,-6.4549 14.83325,-12.90266 22.67893,-18.5817 6.18052,-4.47373 12.62607,-8.47042 19.54348,-11.61776 5.0328,-3.97174 12.37999,-6.63809 19.31818,-10.22727 -9.09091,-1.46291 -18.18182,0.26935 -27.27273,1.70455 12.58062,-7.36187 28.93013,-10.41644 44.88637,-13.92046 -17.24605,-1.23617 -34.81136,0.0818 -52.55682,2.84091 23.95536,-9.80113 49.95373,-10.6228 75.28409,-14.48864 -52.32936,-0.62111 -92.89582,-0.30654 -101.42046,2.55682 -6.95582,2.05113 -13.20065,4.63549 -16.19318,9.65909 l -1.70454,6.25 c -1.33675,1.85328 -2.67349,3.11641 -4.01024,4.07435 -1.88295,1.34937 -3.7659,2.09319 -5.64885,3.02793 z"
       id="path2998-2"
       inkscape:connector-curvature="0"
       sodipodi:nodetypes="ccccccccscccccccccsc"
       inkscape:export-filename="/home/torben/projects/teamadminhelper/ascetic/images/logo_cat_large.png"
       inkscape:export-xdpi="708.21997"
       inkscape:export-ydpi="708.21997" />
    <path
       style="fill:#000000;stroke:#000000;stroke-width:0.54105818px;stroke-linecap:butt;stroke-linejoin:miter;stroke-opacity:1"
       d="m 423.90396,676.14241 c -8.72073,-4.53789 -11.71373,-2.18102 -15.23167,-0.45605 1.82779,2.31312 1.87581,4.84692 15.23167,0.45605 z"
       id="path3018-9-8"
       inkscape:connector-curvature="0"
       sodipodi:nodetypes="ccc"
       inkscape:export-xdpi="708.21997"
       inkscape:export-ydpi="708.21997"
       inkscape:export-filename="/home/torben/projects/teamadminhelper/ascetic/images/logo_cat_large.png" />
    <text
       xml:space="preserve"
       style="font-size:2.24064732px;font-style:normal;font-weight:normal;line-height:125%;letter-spacing:0px;word-spacing:0px;fill:#000000;fill-opacity:1;stroke:none;font-family:Sans"
       x="-84.925591"
       y="814.70367"
       id="text3786"
       sodipodi:linespacing="125%"
       transform="matrix(0.75678329,-0.63495414,0.60142143,0.81677936,0,0)"
       inkscape:export-filename="/home/torben/projects/teamadminhelper/ascetic/images/logo_cat_large.png"
       inkscape:export-xdpi="708.21997"
       inkscape:export-ydpi="708.21997"><tspan
         sodipodi:role="line"
         id="tspan3788"
         x="-84.925591"
         y="814.70367">Torben Lauritzen 2012</tspan></text>
    <path
       style="fill:#000000;stroke:#ff6600;stroke-width:1px;stroke-linecap:butt;stroke-linejoin:miter;stroke-opacity:1"
       d="m 226.29199,666.93431 c -1.28554,3.42284 0.32468,5.10822 1.42045,7.10227 0.1644,0.9519 0.77787,2.38131 2.93738,4.82954 0.80424,1.3738 1.37902,3.16467 3.59672,3.12501 0.28681,0.24074 -1.28606,2.08476 10.14145,1.40978 1.23284,-0.14546 2.46567,0.79652 3.69851,3.15165 l 2.67462,4.974 c 2.85195,4.79256 2.01849,9.78613 2.62664,14.12993 7.41464,-6.4549 14.83325,-12.90266 22.67893,-18.5817 6.18052,-4.47373 12.62607,-8.47042 19.54348,-11.61776 5.0328,-3.97174 12.37999,-6.63809 19.31818,-10.22727 -9.09091,-1.46291 -18.18182,0.26935 -27.27273,1.70455 12.58062,-7.36187 28.93013,-10.41644 44.88637,-13.92046 -17.24605,-1.23617 -34.81136,0.0818 -52.55682,2.84091 23.95536,-9.80113 49.95373,-10.6228 75.28409,-14.48864 -52.32936,-0.62111 -92.89582,-0.30654 -101.42046,2.55682 -6.95582,2.05113 -13.20065,4.63549 -16.19318,9.65909 l -1.70454,6.25 c -1.33675,1.85328 -2.67349,3.11641 -4.01024,4.07435 -1.88295,1.34937 -3.7659,2.09319 -5.64885,3.02793 z"
       id="path2998-2-6"
       inkscape:connector-curvature="0"
       sodipodi:nodetypes="ccccccccscccccccccsc"
       inkscape:export-filename="/home/torben/projects/teamadminhelper/ascetic/logo_cat_large_invert.png"
       inkscape:export-xdpi="708.21997"
       inkscape:export-ydpi="708.21997" />
    <path
       style="fill:#ff6600;stroke:#ff6600;stroke-width:0.54105818000000006px;stroke-linecap:butt;stroke-linejoin:miter;stroke-opacity:1"
       d="m 254.64005,657.38545 c -8.72073,-4.53789 -11.71373,-2.18102 -15.23167,-0.45605 1.82779,2.31312 1.87581,4.84692 15.23167,0.45605 z"
       id="path3018-9-8-8"
       inkscape:connector-curvature="0"
       sodipodi:nodetypes="ccc"
       inkscape:export-xdpi="708.21997"
       inkscape:export-ydpi="708.21997"
       inkscape:export-filename="/home/torben/projects/teamadminhelper/ascetic/logo_cat_large_invert.png" />
    <text
       xml:space="preserve"
       style="font-size:2.24064732px;font-style:normal;font-weight:normal;line-height:125%;letter-spacing:0px;word-spacing:0px;fill:#ff6600;fill-opacity:1;stroke:none;font-family:Sans"
       x="-211.89601"
       y="693.03387"
       id="text3786-0"
       sodipodi:linespacing="125%"
       transform="matrix(0.75678329,-0.63495414,0.60142143,0.81677936,0,0)"
       inkscape:export-filename="/home/torben/projects/teamadminhelper/ascetic/logo_cat_large_invert.png"
       inkscape:export-xdpi="708.21997"
       inkscape:export-ydpi="708.21997"><tspan
         sodipodi:role="line"
         id="tspan3788-9"
         x="-211.89601"
         y="693.03387">Torben Lauritzen 2012</tspan></text>
    <path
       style="fill:#ff0000;stroke:#000000;stroke-width:1px;stroke-linecap:butt;stroke-linejoin:miter;stroke-opacity:1"
       d="m 403.69753,588.91308 c -1.28554,3.42284 0.32468,5.10822 1.42045,7.10227 0.1644,0.9519 0.77787,2.38131 2.93738,4.82954 0.80424,1.3738 1.37902,3.16467 3.59672,3.12501 0.28681,0.24074 -1.28606,2.08476 10.14145,1.40978 1.23284,-0.14546 2.46567,0.79652 3.69851,3.15165 l 2.67462,4.974 c 2.85195,4.79256 2.01849,9.78613 2.62664,14.12993 7.41464,-6.4549 14.83325,-12.90266 22.67893,-18.5817 6.18052,-4.47373 12.62607,-8.47042 19.54348,-11.61776 5.0328,-3.97174 12.37999,-6.63809 19.31818,-10.22727 -9.09091,-1.46291 -18.18182,0.26935 -27.27273,1.70455 12.58062,-7.36187 28.93013,-10.41644 44.88638,-13.92046 -17.24606,-1.23617 -34.81137,0.0818 -52.55683,2.84091 23.95536,-9.80113 49.95374,-10.6228 75.2841,-14.48864 -52.32937,-0.62111 -92.89583,-0.30654 -101.42047,2.55682 -6.95582,2.05113 -13.20065,4.63549 -16.19318,9.65909 l -1.70454,6.25 c -1.33675,1.85328 -2.67349,3.11641 -4.01024,4.07435 -1.88295,1.34937 -3.7659,2.09319 -5.64885,3.02793 z"
       id="path2998-2-0"
       inkscape:connector-curvature="0"
       sodipodi:nodetypes="ccccccccscccccccccsc"
       inkscape:export-filename="/home/torben/projects/teamadminhelper/ascetic/images/logo_cat_large.png"
       inkscape:export-xdpi="708.21997"
       inkscape:export-ydpi="708.21997" />
    <path
       style="fill:#000000;stroke:#000000;stroke-width:0.54105818px;stroke-linecap:butt;stroke-linejoin:miter;stroke-opacity:1"
       d="m 432.04559,579.36422 c -8.72073,-4.53789 -11.71373,-2.18102 -15.23167,-0.45605 1.82779,2.31312 1.87581,4.84692 15.23167,0.45605 z"
       id="path3018-9-8-4"
       inkscape:connector-curvature="0"
       sodipodi:nodetypes="ccc"
       inkscape:export-xdpi="708.21997"
       inkscape:export-ydpi="708.21997"
       inkscape:export-filename="/home/torben/projects/teamadminhelper/ascetic/images/logo_cat_large.png" />
    <text
       xml:space="preserve"
       style="font-size:2.24064732px;font-style:normal;font-weight:normal;line-height:125%;letter-spacing:0px;word-spacing:0px;fill:#000000;fill-opacity:1;stroke:none;font-family:Sans"
       x="-20.071194"
       y="746.63312"
       id="text3786-6"
       sodipodi:linespacing="125%"
       transform="matrix(0.75678329,-0.63495414,0.60142143,0.81677936,0,0)"
       inkscape:export-filename="/home/torben/projects/teamadminhelper/ascetic/images/logo_cat_large.png"
       inkscape:export-xdpi="708.21997"
       inkscape:export-ydpi="708.21997"><tspan
         sodipodi:role="line"
         id="tspan3788-96"
         x="-20.071194"
         y="746.63312">Torben Lauritzen 2012</tspan></text>
    <path
       style="fill:none;stroke:none;stroke-width:1px;stroke-linecap:butt;stroke-linejoin:miter;stroke-opacity:1"
       d="m 445.18389,564.44625 c 17.41827,0.0613 34.12061,0.40897 49.21191,1.40105 -26.71376,5.83776 -24.72636,7.79699 -36.07706,11.55867 9.46615,-0.23955 19.47542,-0.84118 26.2697,0.70052 -3.76966,1.18829 -7.46282,2.44214 -10.77917,4.01899 -3.47363,1.65163 -6.53385,3.65761 -8.83554,6.31376 5.79144,-0.34237 12.05575,-0.34924 16.98774,0.70053 -5.82868,3.38587 -9.98072,6.77174 -13.48511,10.15761"
       id="path3865"
       inkscape:connector-curvature="0"
       sodipodi:nodetypes="ccccsccc" />
    <path
       style="fill:#ff6600;fill-opacity:0;stroke:none"
       d="m 477.23042,570.78 c 2.0819,-0.67273 9.54896,-2.60228 13.61646,-3.5186 l 3.72154,-0.83838 0,-0.55369 0,-0.5537 -1.5324,-0.10946 c -3.29609,-0.23544 -11.60356,-0.62654 -16.85639,-0.79358 -3.03415,-0.0965 -7.17163,-0.23667 -9.1944,-0.31152 l -3.67775,-0.13611 5.95446,-0.10656 c 7.85649,-0.14059 47.63524,-0.14285 51.66375,-0.003 l 3.15236,0.10949 -9.63222,1.19183 c -19.2134,2.37735 -28.6447,3.85119 -36.56545,5.71411 -2.0182,0.47467 -2.28483,0.43738 -0.64996,-0.0909 z"
       id="path3867"
       inkscape:connector-curvature="0" />
    <path
       style="fill:#ff6600;fill-opacity:0;stroke:none"
       d="m 477.23042,570.78 c 2.0819,-0.67273 9.54896,-2.60228 13.61646,-3.5186 l 3.72154,-0.83838 0,-0.55369 0,-0.5537 -1.5324,-0.10946 c -3.29609,-0.23544 -11.60356,-0.62654 -16.85639,-0.79358 -3.03415,-0.0965 -7.17163,-0.23667 -9.1944,-0.31152 l -3.67775,-0.13611 5.95446,-0.10656 c 7.85649,-0.14059 47.63524,-0.14285 51.66375,-0.003 l 3.15236,0.10949 -9.63222,1.19183 c -19.2134,2.37735 -28.6447,3.85119 -36.56545,5.71411 -2.0182,0.47467 -2.28483,0.43738 -0.64996,-0.0909 z"
       id="path3869"
       inkscape:connector-curvature="0" />
    <path
       style="fill:#d45500;fill-opacity:0;stroke:none"
       d="m 477.23042,570.78 c 2.0819,-0.67273 9.54896,-2.60228 13.61646,-3.5186 l 3.72154,-0.83838 0,-0.55369 0,-0.5537 -1.5324,-0.10946 c -3.29609,-0.23544 -11.60356,-0.62654 -16.85639,-0.79358 -3.03415,-0.0965 -7.17163,-0.23667 -9.1944,-0.31152 l -3.67775,-0.13611 5.95446,-0.10656 c 7.85649,-0.14059 47.63524,-0.14285 51.66375,-0.003 l 3.15236,0.10949 -9.63222,1.19183 c -19.2134,2.37735 -28.6447,3.85119 -36.56545,5.71411 -2.0182,0.47467 -2.28483,0.43738 -0.64996,-0.0909 z"
       id="path3871"
       inkscape:connector-curvature="0" />
    <path
       style="fill:#d45500;fill-opacity:0;stroke:none"
       d="m 278.98173,687.36037 0,-1.56081 1.09457,-0.77602 c 3.15853,-2.23929 9.90348,-6.19679 13.8636,-8.13426 1.26075,-0.61681 3.08036,-1.66862 4.04358,-2.33735 1.67323,-1.16167 4.60605,-2.67609 14.75482,-7.61894 2.14317,-1.04381 3.89667,-1.94716 3.89667,-2.00744 0,-0.12768 -4.71826,-0.64404 -7.26795,-0.79539 -3.11138,-0.1847 -10.90492,0.45455 -16.11208,1.32156 -1.6945,0.28214 -1.83708,0.20439 -0.70053,-0.38201 2.9358,-1.51471 8.52179,-3.60916 13.83538,-5.18752 5.4159,-1.60876 9.99621,-2.7347 20.05254,-4.92933 3.13047,-0.68318 5.82968,-1.28482 5.99825,-1.33698 0.45925,-0.14211 0.39739,-0.92149 -0.0876,-1.10323 -0.5742,-0.21518 -8.83884,-0.54555 -13.61646,-0.5443 -8.49535,0.002 -19.20514,0.7305 -29.49135,2.00546 -1.84018,0.22809 -3.37045,0.39063 -3.4006,0.36119 -0.17664,-0.17246 7.36078,-2.42753 11.96375,-3.57935 9.41337,-2.35554 17.93842,-3.74953 38.61646,-6.31444 5.44221,-0.67505 11.86307,-1.50364 14.26858,-1.8413 2.4055,-0.33766 4.43484,-0.61393 4.50963,-0.61393 0.0748,0 0.13598,-0.26637 0.13598,-0.59193 l 0,-0.59192 -11.16462,-0.1309 c -11.46772,-0.13445 -55.55171,0.007 -61.7338,0.1985 l -3.45885,0.10697 0,-62.45508 0,-62.45508 171.62872,0 171.62872,0 0,86.42732 0,86.42732 -73.42381,-0.011 -73.42382,-0.011 1.79252,-0.85185 c 5.46194,-2.59565 8.79534,-4.28072 8.67567,-4.38565 -0.14648,-0.12843 -4.81017,-0.62806 -7.22826,-0.77439 -3.1986,-0.19355 -10.76466,0.43957 -16.54268,1.38428 -0.86293,0.14109 -1.59475,0.23074 -1.62625,0.19922 -0.0315,-0.0315 0.92142,-0.4982 2.11763,-1.03709 7.96618,-3.5887 16.52745,-6.11052 32.55597,-9.58974 l 6.78489,-1.47276 0.002,-0.54627 c 0.002,-0.49589 -0.0591,-0.55609 -0.65529,-0.65286 -0.36121,-0.0586 -3.47902,-0.20166 -6.92847,-0.31786 -11.60039,-0.39075 -23.12365,0.26857 -38.73703,2.2164 l -0.70052,0.0874 0.70052,-0.27178 c 2.50631,-0.97237 10.01892,-3.08533 14.88617,-4.1868 8.74664,-1.97939 16.13867,-3.12912 35.98949,-5.59771 5.8275,-0.72469 12.24009,-1.55592 14.25019,-1.84718 2.01011,-0.29126 3.72421,-0.52957 3.80911,-0.52957 0.0849,0 0.15436,-0.2663 0.15436,-0.59179 l 0,-0.59179 -13.2662,-0.13172 c -15.99837,-0.15885 -52.62849,-0.004 -60.28897,0.25434 -13.18497,0.4452 -21.45827,1.04026 -25.67208,1.8465 -0.70635,0.13515 -2.2134,0.52388 -3.349,0.86386 -7.96098,2.38335 -12.69788,5.19195 -15.309,9.07702 -0.29414,0.43765 -0.76714,1.82157 -1.31348,3.84301 l -0.85381,3.15906 -1.37988,1.4758 c -1.72876,1.84891 -2.94874,2.72178 -5.89499,4.21771 -2.3213,1.17862 -2.33284,1.18751 -2.56084,1.97205 -0.12596,0.43345 -0.23022,1.24124 -0.23168,1.79509 l -0.003,1.00701 -57.79334,0 -57.79335,0 0,-1.56081 z m 154.5119,-61.26756 c 14.83482,-12.8418 23.02903,-18.98395 32.53409,-24.38665 1.58618,-0.90159 3.84657,-2.10045 5.02308,-2.66413 1.17652,-0.56369 2.98913,-1.59897 4.02802,-2.30063 2.39725,-1.61907 4.44232,-2.71241 10.50405,-5.61574 7.65065,-3.66433 8.66124,-4.16334 8.58539,-4.23919 -0.0391,-0.0391 -1.48215,-0.23522 -3.20676,-0.4358 -2.65101,-0.30831 -3.78525,-0.35045 -7.33879,-0.27263 -4.30679,0.0943 -6.60679,0.30455 -11.74853,1.07385 -1.61546,0.2417 -2.96369,0.413 -2.99604,0.38065 -0.0888,-0.0888 3.54165,-1.76481 5.49392,-2.53626 7.60853,-3.00653 15.23866,-5.09155 31.54514,-8.62005 l 4.25593,-0.92093 -0.0528,-0.54123 -0.0528,-0.54123 -1.48862,-0.13224 c -2.81501,-0.25008 -11.65445,-0.39298 -17.16431,-0.27749 -7.66166,0.16059 -16.81728,0.85939 -24.86721,1.89799 -1.493,0.19262 -2.83275,0.34456 -2.97724,0.33763 -0.6303,-0.0302 5.36534,-1.92529 9.61035,-3.03757 10.5603,-2.76702 18.19004,-4.04121 42.0534,-7.02303 5.8275,-0.72817 12.13222,-1.54228 14.01051,-1.80914 l 3.41506,-0.48519 0.0535,-0.54071 0.0535,-0.54071 -2.06756,-0.13255 c -3.70904,-0.23778 -60.70163,-0.18918 -68.5299,0.0584 -18.10885,0.57281 -26.38354,1.24708 -30.91068,2.51879 -7.88752,2.21565 -13.41403,5.27082 -15.94154,8.81281 -0.67771,0.94972 -0.87746,1.46883 -1.64373,4.27168 -0.78865,2.88475 -0.94054,3.27213 -1.58449,4.04126 -1.82263,2.17694 -4.07733,3.81386 -7.27118,5.27891 l -1.65684,0.76001 -0.2681,1.17874 c -0.14745,0.6483 -0.2681,1.46119 -0.2681,1.80643 0,0.86135 0.56825,2.47375 1.32965,3.77289 0.34938,0.59612 0.70455,1.33491 0.78928,1.64176 0.19738,0.71484 1.18575,2.3565 2.04966,3.4044 0.37038,0.44927 0.96757,1.30734 1.3271,1.90683 0.73525,1.22598 1.66421,2.07916 2.4523,2.25225 0.29133,0.064 0.67558,0.30181 0.85389,0.52849 0.65349,0.83077 1.74957,1.00787 6.52212,1.05378 2.40805,0.0232 4.47405,0.0477 4.5911,0.0544 0.42668,0.0247 1.42916,1.09396 2.10617,2.24653 1.74523,2.97112 3.90743,7.2641 4.31137,8.56009 0.52303,1.6781 0.74356,3.30358 0.98629,7.26979 0.18749,3.06368 0.34361,4.52784 0.48279,4.52784 0.0459,0 1.4262,-1.16243 3.06745,-2.58318 l 0,0 z"
       id="path3873"
       inkscape:connector-curvature="0" />
    <path
       style="fill:#d45500;fill-opacity:0;stroke:none"
       d="m 431.09289,623.82317 c -0.15089,-3.2289 -0.5187,-5.8356 -1.06725,-7.56359 -0.47162,-1.48567 -4.09245,-8.34233 -5.11446,-9.68511 -1.23339,-1.62051 -1.21119,-1.61471 -6.61246,-1.72765 -5.03573,-0.1053 -5.76396,-0.22052 -6.04365,-0.95617 -0.11045,-0.2905 -0.34698,-0.43209 -0.86923,-0.52032 -0.88066,-0.14879 -1.61319,-0.74324 -2.2358,-1.81437 -0.26005,-0.44738 -1.00855,-1.52175 -1.66333,-2.38749 -0.65478,-0.86575 -1.34409,-1.98457 -1.5318,-2.48627 -0.18771,-0.5017 -0.70803,-1.59045 -1.15626,-2.41945 -0.65002,-1.20221 -0.83289,-1.73064 -0.90356,-2.61099 -0.15293,-1.90524 0.0175,-2.15727 2.1887,-3.2366 2.51926,-1.25235 3.95576,-2.20318 5.43083,-3.59469 1.96522,-1.85389 2.35058,-2.55554 3.25527,-5.92703 0.43315,-1.61421 0.96837,-3.2298 1.18938,-3.5902 1.43277,-2.3364 4.84064,-4.81448 9.06778,-6.59376 2.53893,-1.06869 6.40544,-2.31883 8.48288,-2.74275 3.33005,-0.67952 11.67145,-1.46062 11.67145,-1.09293 0,0.10981 4.10668,0.2144 11.33976,0.28882 6.23686,0.0642 13.58581,0.19341 16.33099,0.2872 6.66442,0.2277 13.92914,0.5408 15.76183,0.67933 l 1.48861,0.11252 -2.18914,0.49711 c -3.13851,0.7127 -8.4194,2.11363 -11.46491,3.04143 -3.87369,1.18012 -5.69796,1.87696 -11.12703,4.25034 -1.493,0.65267 -3.62084,1.51586 -4.72855,1.91819 -3.18938,1.15841 -3.47319,1.31367 -3.37171,1.84453 0.0473,0.24754 0.1499,0.48954 0.22795,0.53778 0.078,0.0482 0.87644,-0.0342 1.77418,-0.18316 3.4917,-0.57944 19.50904,-0.53766 22.35718,0.0583 0.5456,0.11417 0.46344,0.16161 -1.22592,0.70774 -4.86241,1.57191 -10.00751,4.09696 -12.66886,6.21747 -1.06754,0.85059 -3.94046,3.6429 -3.94046,3.8299 0,0.0743 0.26927,0.135 0.59837,0.135 0.3291,0 0.62948,0.0933 0.66752,0.20745 0.0521,0.15622 0.50789,0.13459 1.84556,-0.0876 2.04296,-0.33929 7.28446,-0.39887 10.5488,-0.11992 3.19642,0.27316 3.14205,0.19178 1.03745,1.55288 -2.16119,1.3977 -4.10389,2.80893 -6.02869,4.37942 -1.99979,1.63165 -4.29045,3.74285 -4.29232,3.95603 -8.8e-4,0.1 -1.19672,0.85163 -2.65743,1.67037 -8.57123,4.80426 -17.02764,11.02227 -29.01528,21.33499 -2.53908,2.18432 -4.75575,4.07318 -4.92593,4.19747 -0.29075,0.21235 -0.31673,0.0697 -0.43046,-2.36427 l 0,0 z m 3.32787,-1.92695 c -0.0731,-0.19047 -0.0212,-0.23368 0.18539,-0.15439 0.39755,0.15256 0.76519,-0.19983 0.7817,-0.74928 0.008,-0.25309 0.0536,-0.36165 0.10216,-0.24125 0.0486,0.1204 0.20444,0.21891 0.34634,0.21891 0.2158,0 0.20741,-0.0856 -0.0513,-0.52367 -0.21224,-0.35929 -0.25272,-0.5803 -0.12895,-0.70406 0.12376,-0.12377 0.25453,-0.0418 0.4166,0.26097 0.12991,0.24276 0.32534,0.44137 0.43429,0.44137 0.31376,0 0.61839,-0.38731 0.61839,-0.78624 0,-0.2799 0.108,-0.3643 0.45942,-0.35902 0.68161,0.0102 0.91197,-0.46455 0.4605,-0.94914 -0.46108,-0.49492 -0.99086,-0.40875 -1.05895,0.17224 -0.047,0.40103 -0.12011,0.43681 -0.84296,0.41248 -0.60184,-0.0203 -0.76965,0.0303 -0.70029,0.21106 0.0502,0.13073 -0.0313,0.36022 -0.18105,0.50996 -0.14975,0.14975 -0.23209,0.37697 -0.18298,0.50495 0.0651,0.16959 -0.0846,0.22656 -0.55217,0.21013 -0.67987,-0.0239 -1.86598,0.66813 -1.67494,0.97723 0.0614,0.0993 0.18967,0.0909 0.3248,-0.0212 0.16767,-0.13916 0.32609,-0.0354 0.63548,0.4161 0.39984,0.58354 0.81371,0.6875 0.60856,0.15286 l 0,0 z m 4.16753,-3.83027 c -0.36897,-0.56311 -0.12929,-0.80624 0.28773,-0.29188 0.35439,0.43711 0.52603,0.49875 0.52603,0.18892 0,-0.32043 -0.5474,-0.84566 -0.88136,-0.84566 -0.16592,0 -0.39748,0.11543 -0.51457,0.25652 -0.17114,0.20621 -0.13837,0.36119 0.16708,0.79015 0.44742,0.62835 0.83158,0.53761 0.41509,-0.098 z m 2.12821,-1.12483 c 0.35633,-0.39374 0.2328,-0.68854 -0.154,-0.36753 -0.20065,0.16652 -0.33584,0.0958 -0.6955,-0.36375 -0.61694,-0.7883 -0.79722,-0.48554 -0.2254,0.37853 0.53218,0.80417 0.63564,0.83813 1.0749,0.35275 z m 1.03409,-0.8572 c 0.19719,-0.2179 0.23681,-0.37269 0.1147,-0.44816 -0.10259,-0.0634 -0.18654,-0.19011 -0.18654,-0.28157 0,-0.0915 0.15673,-0.0684 0.34829,0.0512 0.29494,0.1842 0.4043,0.1615 0.71401,-0.14821 l 0.36572,-0.36572 -0.43642,-0.50705 c -0.51191,-0.59477 -0.79935,-0.47318 -0.38311,0.16207 0.17854,0.27249 0.22005,0.47769 0.11034,0.54549 -0.0967,0.0598 -0.26139,-0.0511 -0.36594,-0.24648 -0.21513,-0.40198 -0.74615,-0.49587 -0.59632,-0.10543 0.0666,0.17346 -0.055,0.26707 -0.39805,0.30648 -0.31564,0.0363 -0.51629,0.17483 -0.55599,0.38397 -0.0386,0.2031 0.0107,0.28221 0.12985,0.20857 0.11337,-0.0701 0.19197,0.017 0.19197,0.21277 0,0.64302 0.47114,0.7584 0.94749,0.23204 l 0,0 z m 1.59078,-1.72491 c -0.26296,-0.63874 -0.29603,-0.91944 -0.10834,-0.91944 0.10674,0 0.2925,0.15762 0.41281,0.35026 0.12031,0.19264 0.2786,0.35026 0.35175,0.35026 0.24051,0 0.12761,-0.43032 -0.22348,-0.85176 -0.32894,-0.39486 -0.36498,-0.40072 -0.78226,-0.12731 -0.51305,0.33617 -0.53545,0.49156 -0.1546,1.0728 0.32396,0.49443 0.69396,0.58631 0.50412,0.12519 z m 2.00418,-1.27319 c 0.3311,-0.28306 0.54973,-0.56692 0.48584,-0.6308 -0.0639,-0.0639 -0.23627,-0.0165 -0.38308,0.10538 -0.2308,0.19154 -0.26693,0.13565 -0.26693,-0.41288 0,-0.74896 -0.14401,-0.78895 -0.70205,-0.19494 -0.26648,0.28365 -0.52567,0.40365 -0.73106,0.33846 -0.44674,-0.14179 -0.39583,0.15374 0.13519,0.78483 0.55547,0.66013 0.7004,0.66112 1.46209,0.01 l 0,10e-6 z m -2.09061,-0.34678 c 0,-0.0963 -0.0788,-0.17513 -0.17514,-0.17513 -0.0963,0 -0.17513,0.0788 -0.17513,0.17513 0,0.0963 0.0788,0.17513 0.17513,0.17513 0.0963,0 0.17514,-0.0788 0.17514,-0.17513 z m 3.45206,-0.82137 c 0.0636,-0.16573 0.0222,-0.32645 -0.0942,-0.36522 -0.11425,-0.0381 -0.16082,-0.14515 -0.10348,-0.23792 0.0639,-0.10347 0.20141,-0.088 0.35558,0.0399 0.38027,0.3156 0.48197,0.0688 0.16869,-0.40928 -0.36143,-0.55162 -0.11817,-0.79488 0.27442,-0.27442 0.16566,0.21963 0.35667,0.34385 0.42447,0.27605 0.15942,-0.15941 -0.39533,-1.00985 -0.65873,-1.00985 -0.33743,0 -0.82393,0.54289 -0.72276,0.80653 0.0664,0.17296 0.009,0.21513 -0.18917,0.13908 -0.59738,-0.22923 -1.0649,0.65124 -0.5952,1.12094 0.30866,0.30866 1.00919,0.25594 1.14033,-0.0858 l 0,0 z m 2.48504,-2.04982 c 0.23148,-0.2464 0.32129,-0.46427 0.21776,-0.52825 -0.0969,-0.0599 -0.24024,-0.009 -0.31851,0.11287 -0.0931,0.145 -0.17303,0.01 -0.23102,-0.39119 -0.1,-0.69094 -0.64955,-0.92265 -1.04842,-0.44204 -0.27358,0.32964 -0.0871,0.5957 0.20958,0.29902 0.36729,-0.36729 0.48745,-0.22411 0.48745,0.58085 0,0.89613 0.12455,0.96336 0.68316,0.36874 z m 1.1432,-1.03742 c 0.30692,-0.48671 -0.22633,-1.25776 -0.86986,-1.25776 -0.70984,0 -0.79682,0.61343 -0.17513,1.23512 0.48814,0.48814 0.74791,0.49377 1.04499,0.0226 z m 1.11958,-0.9075 c 0.18942,-0.24081 0.41935,-0.43783 0.51096,-0.43783 0.24259,0 0.82225,-0.6829 0.69103,-0.81412 -0.0613,-0.0613 -0.23152,-0.0118 -0.37827,0.10999 -0.23138,0.19203 -0.2532,0.15334 -0.16427,-0.29133 0.072,-0.36002 0.0154,-0.58509 -0.18992,-0.75551 -0.35194,-0.29208 -0.84137,-0.0546 -0.94021,0.45626 -0.0613,0.317 -0.0492,0.31808 0.27691,0.0246 0.44804,-0.40313 0.60612,-0.21358 0.46457,0.55703 -0.16003,0.87115 -0.41749,0.95911 -0.94784,0.32383 -0.45647,-0.54678 -0.86785,-0.55604 -0.86785,-0.0195 0,0.16778 0.0991,0.23307 0.26002,0.17131 0.27745,-0.10646 0.72249,0.5108 0.6447,0.89418 -0.0741,0.36501 0.27466,0.24576 0.64017,-0.21891 z m -25.62545,-26.43279 c 1.63706,-0.39083 6.07179,-1.64975 6.91769,-1.96377 0.3454,-0.12823 -2.93932,-1.6854 -4.96656,-2.35448 -2.71212,-0.89512 -5.24734,-0.96876 -7.55534,-0.21945 -0.48161,0.15636 -1.56841,0.63022 -2.41512,1.05301 l -1.53947,0.76873 0.5464,0.76085 c 0.87185,1.21402 1.81003,2.03334 2.63883,2.3045 1.14158,0.3735 4.00263,0.21666 6.37357,-0.34939 z"
       id="path3875"
       inkscape:connector-curvature="0" />
    <path
       style="fill:#782121;fill-opacity:0;stroke:none"
       d="m 468.12359,586.2858 c 2.93985,-2.35602 7.81588,-4.69817 14.05429,-6.75081 l 2.58319,-0.84996 0,-0.57369 c 0,-0.31554 -0.0307,-0.5737 -0.0682,-0.5737 -0.0375,0 -0.6877,-0.11477 -1.44484,-0.25504 -1.84731,-0.34225 -4.31697,-0.58257 -7.59377,-0.73894 -2.549,-0.12164 -2.63978,-0.13762 -1.48862,-0.26199 7.3271,-0.79162 18.94078,-1.27782 26.2697,-1.09977 l 5.25394,0.12764 -5.77933,1.28209 c -14.32633,3.17817 -22.66197,5.73383 -30.47496,9.34344 -1.72675,0.79776 -1.94053,0.85494 -1.31138,0.35073 z"
       id="path3880"
       inkscape:connector-curvature="0" />
    <path
       style="fill:#ffff00;fill-opacity:0;stroke:#ffff00;stroke-width:0.17513135;stroke-opacity:1"
       d="m 278.98173,687.36037 0,-1.56081 1.09457,-0.77602 c 3.15853,-2.23929 9.90348,-6.19679 13.8636,-8.13426 1.26075,-0.61681 3.08036,-1.66862 4.04358,-2.33735 1.67323,-1.16167 4.60605,-2.67609 14.75482,-7.61894 2.14317,-1.04381 3.89667,-1.94716 3.89667,-2.00744 0,-0.12768 -4.71826,-0.64404 -7.26795,-0.79539 -3.11138,-0.1847 -10.90492,0.45455 -16.11208,1.32156 -1.6945,0.28214 -1.83708,0.20439 -0.70053,-0.38201 2.9358,-1.51471 8.52179,-3.60916 13.83538,-5.18752 5.4159,-1.60876 9.99621,-2.7347 20.05254,-4.92933 3.13047,-0.68318 5.82968,-1.28482 5.99825,-1.33698 0.45925,-0.14211 0.39739,-0.92149 -0.0876,-1.10323 -0.5742,-0.21518 -8.83884,-0.54555 -13.61646,-0.5443 -8.49535,0.002 -19.20514,0.7305 -29.49135,2.00546 -1.84018,0.22809 -3.37045,0.39063 -3.4006,0.36119 -0.17664,-0.17246 7.36078,-2.42753 11.96375,-3.57935 9.41337,-2.35554 17.93842,-3.74953 38.61646,-6.31444 5.44221,-0.67505 11.86307,-1.50364 14.26858,-1.8413 2.4055,-0.33766 4.43484,-0.61393 4.50963,-0.61393 0.0748,0 0.13598,-0.26637 0.13598,-0.59193 l 0,-0.59192 -11.16462,-0.1309 c -11.46772,-0.13445 -55.55171,0.007 -61.7338,0.1985 l -3.45885,0.10697 0,-62.45508 0,-62.45508 171.62872,0 171.62872,0 0,86.42732 0,86.42732 -73.42381,-0.011 -73.42382,-0.011 1.79252,-0.85185 c 5.46194,-2.59565 8.79534,-4.28072 8.67567,-4.38565 -0.14648,-0.12843 -4.81017,-0.62806 -7.22826,-0.77439 -3.1986,-0.19355 -10.76466,0.43957 -16.54268,1.38428 -0.86293,0.14109 -1.59475,0.23074 -1.62625,0.19922 -0.0315,-0.0315 0.92142,-0.4982 2.11763,-1.03709 7.96618,-3.5887 16.52745,-6.11052 32.55597,-9.58974 l 6.78489,-1.47276 0.002,-0.54627 c 0.002,-0.49589 -0.0591,-0.55609 -0.65529,-0.65286 -0.36121,-0.0586 -3.47902,-0.20166 -6.92847,-0.31786 -11.60039,-0.39075 -23.12365,0.26857 -38.73703,2.2164 l -0.70052,0.0874 0.70052,-0.27178 c 2.50631,-0.97237 10.01892,-3.08533 14.88617,-4.1868 8.74664,-1.97939 16.13867,-3.12912 35.98949,-5.59771 5.8275,-0.72469 12.24009,-1.55592 14.25019,-1.84718 2.01011,-0.29126 3.72421,-0.52957 3.80911,-0.52957 0.0849,0 0.15436,-0.2663 0.15436,-0.59179 l 0,-0.59179 -13.2662,-0.13172 c -15.99837,-0.15885 -52.62849,-0.004 -60.28897,0.25434 -13.18497,0.4452 -21.45827,1.04026 -25.67208,1.8465 -0.70635,0.13515 -2.2134,0.52388 -3.349,0.86386 -7.96098,2.38335 -12.69788,5.19195 -15.309,9.07702 -0.29414,0.43765 -0.76714,1.82157 -1.31348,3.84301 l -0.85381,3.15906 -1.37988,1.4758 c -1.72876,1.84891 -2.94874,2.72178 -5.89499,4.21771 -2.3213,1.17862 -2.33284,1.18751 -2.56084,1.97205 -0.12596,0.43345 -0.23022,1.24124 -0.23168,1.79509 l -0.003,1.00701 -57.79334,0 -57.79335,0 0,-1.56081 z m 154.5119,-61.26756 c 14.83482,-12.8418 23.02903,-18.98395 32.53409,-24.38665 1.58618,-0.90159 3.84657,-2.10045 5.02308,-2.66413 1.17652,-0.56369 2.98913,-1.59897 4.02802,-2.30063 2.39725,-1.61907 4.44232,-2.71241 10.50405,-5.61574 7.65065,-3.66433 8.66124,-4.16334 8.58539,-4.23919 -0.0391,-0.0391 -1.48215,-0.23522 -3.20676,-0.4358 -2.65101,-0.30831 -3.78525,-0.35045 -7.33879,-0.27263 -4.30679,0.0943 -6.60679,0.30455 -11.74853,1.07385 -1.61546,0.2417 -2.96369,0.413 -2.99604,0.38065 -0.0888,-0.0888 3.54165,-1.76481 5.49392,-2.53626 7.60853,-3.00653 15.23866,-5.09155 31.54514,-8.62005 l 4.25593,-0.92093 -0.0528,-0.54123 -0.0528,-0.54123 -1.48862,-0.13224 c -2.81501,-0.25008 -11.65445,-0.39298 -17.16431,-0.27749 -7.66166,0.16059 -16.81728,0.85939 -24.86721,1.89799 -1.493,0.19262 -2.83275,0.34456 -2.97724,0.33763 -0.6303,-0.0302 5.36534,-1.92529 9.61035,-3.03757 10.5603,-2.76702 18.19004,-4.04121 42.0534,-7.02303 5.8275,-0.72817 12.13222,-1.54228 14.01051,-1.80914 l 3.41506,-0.48519 0.0535,-0.54071 0.0535,-0.54071 -2.06756,-0.13255 c -3.70904,-0.23778 -60.70163,-0.18918 -68.5299,0.0584 -18.10885,0.57281 -26.38354,1.24708 -30.91068,2.51879 -7.88752,2.21565 -13.41403,5.27082 -15.94154,8.81281 -0.67771,0.94972 -0.87746,1.46883 -1.64373,4.27168 -0.78865,2.88475 -0.94054,3.27213 -1.58449,4.04126 -1.82263,2.17694 -4.07733,3.81386 -7.27118,5.27891 l -1.65684,0.76001 -0.2681,1.17874 c -0.14745,0.6483 -0.2681,1.46119 -0.2681,1.80643 0,0.86135 0.56825,2.47375 1.32965,3.77289 0.34938,0.59612 0.70455,1.33491 0.78928,1.64176 0.19738,0.71484 1.18575,2.3565 2.04966,3.4044 0.37038,0.44927 0.96757,1.30734 1.3271,1.90683 0.73525,1.22598 1.66421,2.07916 2.4523,2.25225 0.29133,0.064 0.67558,0.30181 0.85389,0.52849 0.65349,0.83077 1.74957,1.00787 6.52212,1.05378 2.40805,0.0232 4.47405,0.0477 4.5911,0.0544 0.42668,0.0247 1.42916,1.09396 2.10617,2.24653 1.74523,2.97112 3.90743,7.2641 4.31137,8.56009 0.52303,1.6781 0.74356,3.30358 0.98629,7.26979 0.18749,3.06368 0.34361,4.52784 0.48279,4.52784 0.0459,0 1.4262,-1.16243 3.06745,-2.58318 l 0,0 z"
       id="path4074"
       inkscape:connector-curvature="0" />
    <path
       style="fill:#ffff00;fill-opacity:0;stroke:#ffff00;stroke-width:0.17513135;stroke-opacity:1"
       d="m 471.62621,597.25903 c 0,-0.13603 3.31932,-2.73415 5.2071,-4.07574 1.06216,-0.75485 2.96239,-2.00292 4.22272,-2.7735 1.26034,-0.77057 2.29433,-1.45085 2.29775,-1.51171 0.008,-0.13339 -2.57304,-0.60495 -4.98501,-0.91095 l -1.75131,-0.22219 1.40105,-0.13643 c 2.83001,-0.2756 7.41738,-0.4086 9.68464,-0.28078 1.28102,0.0722 2.36338,0.16555 2.40525,0.20741 0.0419,0.0419 -1.40029,0.77223 -3.20479,1.62304 -5.88569,2.77506 -10.19895,5.02354 -12.18754,6.3533 -2.30061,1.53839 -3.08986,1.97967 -3.08986,1.72755 z"
       id="path4076"
       inkscape:connector-curvature="0" />
    <path
       style="fill:#ffff00;fill-opacity:0;stroke:#ffff00;stroke-width:0.17513135;stroke-opacity:1"
       d="m 468.12359,586.2858 c 2.93985,-2.35602 7.81588,-4.69817 14.05429,-6.75081 l 2.58319,-0.84996 0,-0.57369 c 0,-0.31554 -0.0307,-0.5737 -0.0682,-0.5737 -0.0375,0 -0.6877,-0.11477 -1.44484,-0.25504 -1.84731,-0.34225 -4.31697,-0.58257 -7.59377,-0.73894 -2.549,-0.12164 -2.63978,-0.13762 -1.48862,-0.26199 7.3271,-0.79162 18.94078,-1.27782 26.2697,-1.09977 l 5.25394,0.12764 -5.77933,1.28209 c -14.32633,3.17817 -22.66197,5.73383 -30.47496,9.34344 -1.72675,0.79776 -1.94053,0.85494 -1.31138,0.35073 z"
       id="path4078"
       inkscape:connector-curvature="0" />
    <path
       style="fill:#ffff00;fill-opacity:1;stroke:#ffff00;stroke-width:0.17513134999999999;stroke-opacity:1"
       d="m 477.23042,570.78 c 2.0819,-0.67273 9.54896,-2.60228 13.61646,-3.5186 l 3.72154,-0.83838 0,-0.55369 0,-0.5537 -1.5324,-0.10946 c -3.29609,-0.23544 -11.60356,-0.62654 -16.85639,-0.79358 -3.03415,-0.0965 -7.17163,-0.23667 -9.1944,-0.31152 l -3.67775,-0.13611 5.95446,-0.10656 c 7.85649,-0.14059 47.63524,-0.14285 51.66375,-0.003 l 3.15236,0.10949 -9.63222,1.19183 c -19.2134,2.37735 -28.6447,3.85119 -36.56545,5.71411 -2.0182,0.47467 -2.28483,0.43738 -0.64996,-0.0909 z"
       id="path4080"
       inkscape:connector-curvature="0" />
    <path
       style="fill:#ffff00;fill-opacity:1;stroke:#ffff00;stroke-width:0.17513135;stroke-opacity:1"
       d="m 469.24443,585.70614 c 0,-0.0345 0.45315,-0.33733 1.007,-0.67301 3.16233,-1.91667 6.4441,-3.38298 11.51489,-5.14488 l 3.15236,-1.09532 -0.0417,-0.65473 c -0.0229,-0.36011 -0.0686,-0.68166 -0.1015,-0.71455 -0.15297,-0.15297 -4.80433,-0.76054 -6.64645,-0.86817 -1.13359,-0.0662 -2.02813,-0.15337 -1.98786,-0.19364 0.11126,-0.11127 2.97786,-0.35949 6.58835,-0.5705 5.97665,-0.3493 12.72878,-0.50733 17.02078,-0.39836 l 4.25768,0.1081 -1.40105,0.31595 c -16.88367,3.80742 -24.68882,6.10129 -32.02158,9.41087 -1.20768,0.54508 -1.34094,0.5926 -1.34094,0.47824 z"
       id="path4090"
       inkscape:connector-curvature="0" />
    <path
       style="fill:#ffff00;fill-opacity:1;stroke:#ffff00;stroke-width:0.17513135;stroke-opacity:1"
       d="m 474.14811,595.50621 c 0,-0.15283 3.23355,-2.44775 6.21716,-4.41244 1.7338,-1.1417 3.18949,-2.10188 3.23486,-2.13373 0.29392,-0.20633 -0.91839,-0.50529 -3.84782,-0.94888 l -1.48862,-0.22541 1.75132,-0.11224 c 2.35505,-0.15093 8.30372,-0.17606 8.8223,-0.0373 0.33461,0.0896 -0.81324,0.73245 -5.8669,3.28599 -3.4556,1.74606 -6.81625,3.50749 -7.46812,3.91429 -1.14656,0.71551 -1.35418,0.81819 -1.35418,0.66968 z"
       id="path4092"
       inkscape:connector-curvature="0" />
    <path
       style="fill:#ffff00;fill-opacity:1;stroke:none"
       d=""
       id="path4094"
       inkscape:connector-curvature="0" />
    <path
       style="fill:url(#linearGradient4162);stroke:#000000;stroke-width:1px;stroke-linecap:butt;stroke-linejoin:miter;stroke-opacity:1;fill-opacity:1"
       d="m 544.73785,593.10956 c -1.28554,3.42284 0.32468,5.10822 1.42045,7.10227 0.1644,0.9519 0.77787,2.38131 2.93738,4.82954 0.80424,1.3738 1.37902,3.16467 3.59672,3.12501 0.28681,0.24074 -1.28606,2.08476 10.14145,1.40978 1.23284,-0.14546 2.46567,0.79652 3.69851,3.15165 l 2.67462,4.974 c 2.85195,4.79256 2.01849,9.78613 2.62664,14.12993 7.41464,-6.4549 14.83325,-12.90266 22.67893,-18.5817 6.18052,-4.47373 12.62607,-8.47042 19.54348,-11.61776 5.0328,-3.97174 12.37999,-6.63809 19.31818,-10.22727 -9.09091,-1.46291 -18.18182,0.26935 -27.27273,1.70455 12.58062,-7.36187 28.93013,-10.41644 44.88637,-13.92046 -17.24605,-1.23617 -34.81136,0.0818 -52.55682,2.84091 23.95536,-9.80113 49.95373,-10.6228 75.28409,-14.48864 -52.32936,-0.62111 -92.89582,-0.30654 -101.42046,2.55682 -6.95582,2.05113 -13.20065,4.63549 -16.19318,9.65909 l -1.70454,6.25 c -1.33675,1.85328 -2.67349,3.11641 -4.01024,4.07435 -1.88295,1.34937 -3.7659,2.09319 -5.64885,3.02793 z"
       id="path2998-2-60"
       inkscape:connector-curvature="0"
       sodipodi:nodetypes="ccccccccscccccccccsc"
       inkscape:export-filename="/home/torben/projects/teamadminhelper/ascetic/images/logo_cat_large.png"
       inkscape:export-xdpi="708.21997"
       inkscape:export-ydpi="708.21997" />
    <path
       style="fill:#000000;stroke:#000000;stroke-width:0.54105818px;stroke-linecap:butt;stroke-linejoin:miter;stroke-opacity:1"
       d="m 573.08591,583.5607 c -8.72073,-4.53789 -11.71373,-2.18102 -15.23167,-0.45605 1.82779,2.31312 1.87581,4.84692 15.23167,0.45605 z"
       id="path3018-9-8-49"
       inkscape:connector-curvature="0"
       sodipodi:nodetypes="ccc"
       inkscape:export-xdpi="708.21997"
       inkscape:export-ydpi="708.21997"
       inkscape:export-filename="/home/torben/projects/teamadminhelper/ascetic/images/logo_cat_large.png" />
    <text
       xml:space="preserve"
       style="font-size:2.24064732px;font-style:normal;font-weight:normal;line-height:125%;letter-spacing:0px;word-spacing:0px;fill:#000000;fill-opacity:1;stroke:none;font-family:Sans"
       x="92.603775"
       y="839.3631"
       id="text3786-5"
       sodipodi:linespacing="125%"
       transform="matrix(0.75678329,-0.63495414,0.60142143,0.81677936,0,0)"
       inkscape:export-filename="/home/torben/projects/teamadminhelper/ascetic/images/logo_cat_large.png"
       inkscape:export-xdpi="708.21997"
       inkscape:export-ydpi="708.21997"><tspan
         sodipodi:role="line"
         id="tspan3788-3"
         x="92.603775"
         y="839.3631">Torben Lauritzen 2012</tspan></text>
    <g
       id="g4216"
       style="filter:url(#filter5164)">
      <path
         d="m 637.5,576.71564 a 0.21551724,6.6810346 0 1 1 -0.43103,0 0.21551724,6.6810346 0 1 1 0.43103,0 z"
         sodipodi:ry="6.6810346"
         sodipodi:rx="0.21551724"
         sodipodi:cy="576.71564"
         sodipodi:cx="637.28448"
         id="path2996-1"
         style="fill:#ffff00;fill-opacity:1"
         sodipodi:type="arc"
         transform="translate(97.926129,57.064308)" />
      <path
         inkscape:export-ydpi="708.21997"
         inkscape:export-xdpi="708.21997"
         inkscape:export-filename="/home/torben/projects/teamadminhelper/ascetic/images/logo_cat_large.png"
         sodipodi:nodetypes="ccccccccscccccccccsc"
         inkscape:connector-curvature="0"
         id="path2998-2-60-6"
         d="m 642.66398,650.17387 c -1.28554,3.42284 0.32468,5.10822 1.42045,7.10227 0.1644,0.9519 0.77787,2.38131 2.93738,4.82954 0.80424,1.3738 1.37902,3.16467 3.59672,3.12501 0.28681,0.24074 -1.28606,2.08476 10.14145,1.40978 1.23284,-0.14546 2.46567,0.79652 3.69851,3.15165 l 2.67462,4.974 c 2.85195,4.79256 2.01849,9.78613 2.62664,14.12993 7.41464,-6.4549 14.83325,-12.90266 22.67893,-18.5817 6.18052,-4.47373 12.62607,-8.47042 19.54348,-11.61776 5.0328,-3.97174 12.37999,-6.63809 19.31818,-10.22727 -9.09091,-1.46291 -18.18182,0.26935 -27.27273,1.70455 12.58062,-7.36187 28.93013,-10.41644 44.88637,-13.92046 -17.24605,-1.23617 -34.81136,0.0818 -52.55682,2.84091 23.95536,-9.80114 49.95373,-10.62281 75.28409,-14.48865 -52.32936,-0.62111 -92.89582,-0.30654 -101.42046,2.55682 -6.95582,2.05113 -13.20065,4.63549 -16.19318,9.6591 l -1.70454,6.25 c -1.33675,1.85328 -2.67349,3.11641 -4.01024,4.07435 -1.88295,1.34937 -3.7659,2.09319 -5.64885,3.02793 z"
         style="fill:url(#linearGradient4162-3);fill-opacity:1;stroke:#000000;stroke-width:1px;stroke-linecap:butt;stroke-linejoin:miter;stroke-opacity:1" />
      <path
         inkscape:export-filename="/home/torben/projects/teamadminhelper/ascetic/images/logo_cat_large.png"
         inkscape:export-ydpi="708.21997"
         inkscape:export-xdpi="708.21997"
         sodipodi:nodetypes="ccc"
         inkscape:connector-curvature="0"
         id="path3018-9-8-49-3"
         d="m 671.01204,640.62501 c -8.72073,-4.53789 -11.71373,-2.18102 -15.23167,-0.45605 1.82779,2.31312 1.87581,4.84692 15.23167,0.45605 z"
         style="fill:#000000;stroke:#000000;stroke-width:0.54105818px;stroke-linecap:butt;stroke-linejoin:miter;stroke-opacity:1" />
      <text
         inkscape:export-ydpi="708.21997"
         inkscape:export-xdpi="708.21997"
         inkscape:export-filename="/home/torben/projects/teamadminhelper/ascetic/images/logo_cat_large.png"
         transform="matrix(0.75678329,-0.63495414,0.60142143,0.81677936,0,0)"
         sodipodi:linespacing="125%"
         id="text3786-5-4"
         y="944.72699"
         x="138.26811"
         style="font-size:2.24064732px;font-style:normal;font-weight:normal;line-height:125%;letter-spacing:0px;word-spacing:0px;fill:#000000;fill-opacity:1;stroke:none;font-family:Sans"
         xml:space="preserve"><tspan
           y="944.72699"
           x="138.26811"
           id="tspan3788-3-0"
           sodipodi:role="line">Torben Lauritzen 2012</tspan></text>
    </g>
    <g
       id="g4336"
       style="filter:url(#filter5100)">
      <path
         inkscape:export-ydpi="708.21997"
         inkscape:export-xdpi="708.21997"
         inkscape:export-filename="/home/torben/projects/teamadminhelper/ascetic/images/logo_cat_large.png"
         sodipodi:nodetypes="ccccccccscccccccccsc"
         inkscape:connector-curvature="0"
         id="path2998-2-67"
         d="m 524.04696,475.70578 c -1.28554,3.42284 0.32468,5.10822 1.42045,7.10227 0.1644,0.9519 0.77787,2.38131 2.93738,4.82954 0.80424,1.3738 1.37902,3.16467 3.59672,3.12501 0.28681,0.24074 -1.28606,2.08476 10.14145,1.40978 1.23284,-0.14546 2.46567,0.79652 3.69851,3.15165 l 2.67462,4.974 c 2.85195,4.79256 2.01849,9.78613 2.62664,14.12993 7.41464,-6.4549 14.83325,-12.90266 22.67893,-18.5817 6.18052,-4.47373 12.62607,-8.47042 19.54348,-11.61776 5.0328,-3.97174 12.37999,-6.63809 19.31818,-10.22727 -9.09091,-1.46291 -18.18182,0.26935 -27.27273,1.70455 12.58062,-7.36187 28.93013,-10.41644 44.88637,-13.92046 -17.24605,-1.23617 -34.81136,0.0818 -52.55682,2.84091 23.95536,-9.80113 49.95373,-10.6228 75.28409,-14.48864 -52.32936,-0.62111 -92.89582,-0.30654 -101.42046,2.55682 -6.95582,2.05113 -13.20065,4.63549 -16.19318,9.65909 l -1.70454,6.25 c -1.33675,1.85328 -2.67349,3.11641 -4.01024,4.07435 -1.88295,1.34937 -3.7659,2.09319 -5.64885,3.02793 z"
         style="fill:#ff6600;stroke:#000000;stroke-width:1px;stroke-linecap:butt;stroke-linejoin:miter;stroke-opacity:1" />
      <path
         inkscape:export-filename="/home/torben/projects/teamadminhelper/ascetic/images/logo_cat_large.png"
         inkscape:export-ydpi="708.21997"
         inkscape:export-xdpi="708.21997"
         sodipodi:nodetypes="ccc"
         inkscape:connector-curvature="0"
         id="path3018-9-8-3"
         d="m 552.39502,466.15692 c -8.72073,-4.53789 -11.71373,-2.18102 -15.23167,-0.45605 1.82779,2.31312 1.87581,4.84692 15.23167,0.45605 z"
         style="fill:#000000;stroke:#000000;stroke-width:0.54105818px;stroke-linecap:butt;stroke-linejoin:miter;stroke-opacity:1" />
      <text
         inkscape:export-ydpi="708.21997"
         inkscape:export-xdpi="708.21997"
         inkscape:export-filename="/home/torben/projects/teamadminhelper/ascetic/images/logo_cat_large.png"
         transform="matrix(0.75678329,-0.63495414,0.60142143,0.81677936,0,0)"
         sodipodi:linespacing="125%"
         id="text3786-7"
         y="737.3761"
         x="146.31302"
         style="font-size:2.24064732px;font-style:normal;font-weight:normal;line-height:125%;letter-spacing:0px;word-spacing:0px;fill:#000000;fill-opacity:1;stroke:none;font-family:Sans"
         xml:space="preserve"><tspan
           y="737.3761"
           x="146.31302"
           id="tspan3788-8"
           sodipodi:role="line">Torben Lauritzen 2012</tspan></text>
    </g>
  </g>
</svg>
