<?xml version="1.0" encoding="UTF-8" standalone="no"?>
<!-- Created with Inkscape (http://www.inkscape.org/) -->

<svg
   xmlns:dc="http://purl.org/dc/elements/1.1/"
   xmlns:cc="http://creativecommons.org/ns#"
   xmlns:rdf="http://www.w3.org/1999/02/22-rdf-syntax-ns#"
   xmlns:svg="http://www.w3.org/2000/svg"
   xmlns="http://www.w3.org/2000/svg"
   xmlns:sodipodi="http://sodipodi.sourceforge.net/DTD/sodipodi-0.dtd"
   xmlns:inkscape="http://www.inkscape.org/namespaces/inkscape"
   width="744.09448819"
   height="1052.3622047"
   id="svg2"
   version="1.1"
   inkscape:version="0.48.2 r9819"
   sodipodi:docname="logo_cat.svg"
   inkscape:export-filename="/home/torben/projects/teamadminhelper/ascetic/logo_cat.png"
   inkscape:export-xdpi="3.3773324"
   inkscape:export-ydpi="3.3773324">
  <defs
     id="defs4" />
  <sodipodi:namedview
     id="base"
     pagecolor="#ffffff"
     bordercolor="#666666"
     borderopacity="1.0"
     inkscape:pageopacity="0.0"
     inkscape:pageshadow="2"
     inkscape:zoom="5.71"
     inkscape:cx="422.63743"
     inkscape:cy="380.83071"
     inkscape:document-units="px"
     inkscape:current-layer="layer1"
     showgrid="false"
     inkscape:window-width="1366"
     inkscape:window-height="744"
     inkscape:window-x="0"
     inkscape:window-y="24"
     inkscape:window-maximized="1" />
  <metadata
     id="metadata7">
    <rdf:RDF>
      <cc:Work
         rdf:about="">
        <dc:format>image/svg+xml</dc:format>
        <dc:type
           rdf:resource="http://purl.org/dc/dcmitype/StillImage" />
        <dc:title></dc:title>
      </cc:Work>
    </rdf:RDF>
  </metadata>
  <g
     inkscape:label="Layer 1"
     inkscape:groupmode="layer"
     id="layer1">
    <path
       sodipodi:type="arc"
       style="fill:#ffff00;fill-opacity:1"
       id="path2996"
       sodipodi:cx="637.28448"
       sodipodi:cy="576.71564"
       sodipodi:rx="0.21551724"
       sodipodi:ry="6.6810346"
       d="m 637.5,576.71564 a 0.21551724,6.6810346 0 1 1 -0.43103,0 0.21551724,6.6810346 0 1 1 0.43103,0 z" />
    <path
       style="fill:#ff6600;stroke:#000000;stroke-width:1px;stroke-linecap:butt;stroke-linejoin:miter;stroke-opacity:1"
       d="m 395.5559,685.69127 c -1.28554,3.42284 0.32468,5.10822 1.42045,7.10227 0.1644,0.9519 0.77787,2.38131 2.93738,4.82954 0.80424,1.3738 1.37902,3.16467 3.59672,3.12501 0.28681,0.24074 -1.28606,2.08476 10.14145,1.40978 1.23284,-0.14546 2.46567,0.79652 3.69851,3.15165 l 2.67462,4.974 c 2.85195,4.79256 2.01849,9.78613 2.62664,14.12993 7.41464,-6.4549 14.83325,-12.90266 22.67893,-18.5817 6.18052,-4.47373 12.62607,-8.47042 19.54348,-11.61776 5.0328,-3.97174 12.37999,-6.63809 19.31818,-10.22727 -9.09091,-1.46291 -18.18182,0.26935 -27.27273,1.70455 12.58062,-7.36187 28.93013,-10.41644 44.88637,-13.92046 -17.24605,-1.23617 -34.81136,0.0818 -52.55682,2.84091 23.95536,-9.80113 49.95373,-10.6228 75.28409,-14.48864 -52.32936,-0.62111 -92.89582,-0.30654 -101.42046,2.55682 -6.95582,2.05113 -13.20065,4.63549 -16.19318,9.65909 l -1.70454,6.25 c -1.33675,1.85328 -2.67349,3.11641 -4.01024,4.07435 -1.88295,1.34937 -3.7659,2.09319 -5.64885,3.02793 z"
       id="path2998-2"
       inkscape:connector-curvature="0"
       sodipodi:nodetypes="ccccccccscccccccccsc"
       inkscape:export-filename="/home/torben/projects/teamadminhelper/ascetic/logo_cat_large.png"
       inkscape:export-xdpi="708.21997"
       inkscape:export-ydpi="708.21997" />
    <path
       style="fill:#000000;stroke:#000000;stroke-width:0.54105818px;stroke-linecap:butt;stroke-linejoin:miter;stroke-opacity:1"
       d="m 423.90396,676.14241 c -8.72073,-4.53789 -11.71373,-2.18102 -15.23167,-0.45605 1.82779,2.31312 1.87581,4.84692 15.23167,0.45605 z"
       id="path3018-9-8"
       inkscape:connector-curvature="0"
       sodipodi:nodetypes="ccc"
       inkscape:export-xdpi="708.21997"
       inkscape:export-ydpi="708.21997"
       inkscape:export-filename="/home/torben/projects/teamadminhelper/ascetic/logo_cat_large.png" />
    <text
       xml:space="preserve"
       style="font-size:2.24064732px;font-style:normal;font-weight:normal;line-height:125%;letter-spacing:0px;word-spacing:0px;fill:#000000;fill-opacity:1;stroke:none;font-family:Sans"
       x="-84.925591"
       y="814.70367"
       id="text3786"
       sodipodi:linespacing="125%"
       transform="matrix(0.75678329,-0.63495414,0.60142143,0.81677936,0,0)"
       inkscape:export-filename="/home/torben/projects/teamadminhelper/ascetic/logo_cat_large.png"
       inkscape:export-xdpi="708.21997"
       inkscape:export-ydpi="708.21997"><tspan
         sodipodi:role="line"
         id="tspan3788"
         x="-84.925591"
         y="814.70367">Torben Lauritzen 2012</tspan></text>
    <path
       style="fill:#000000;stroke:#ff6600;stroke-width:1px;stroke-linecap:butt;stroke-linejoin:miter;stroke-opacity:1"
       d="m 226.29199,666.93431 c -1.28554,3.42284 0.32468,5.10822 1.42045,7.10227 0.1644,0.9519 0.77787,2.38131 2.93738,4.82954 0.80424,1.3738 1.37902,3.16467 3.59672,3.12501 0.28681,0.24074 -1.28606,2.08476 10.14145,1.40978 1.23284,-0.14546 2.46567,0.79652 3.69851,3.15165 l 2.67462,4.974 c 2.85195,4.79256 2.01849,9.78613 2.62664,14.12993 7.41464,-6.4549 14.83325,-12.90266 22.67893,-18.5817 6.18052,-4.47373 12.62607,-8.47042 19.54348,-11.61776 5.0328,-3.97174 12.37999,-6.63809 19.31818,-10.22727 -9.09091,-1.46291 -18.18182,0.26935 -27.27273,1.70455 12.58062,-7.36187 28.93013,-10.41644 44.88637,-13.92046 -17.24605,-1.23617 -34.81136,0.0818 -52.55682,2.84091 23.95536,-9.80113 49.95373,-10.6228 75.28409,-14.48864 -52.32936,-0.62111 -92.89582,-0.30654 -101.42046,2.55682 -6.95582,2.05113 -13.20065,4.63549 -16.19318,9.65909 l -1.70454,6.25 c -1.33675,1.85328 -2.67349,3.11641 -4.01024,4.07435 -1.88295,1.34937 -3.7659,2.09319 -5.64885,3.02793 z"
       id="path2998-2-6"
       inkscape:connector-curvature="0"
       sodipodi:nodetypes="ccccccccscccccccccsc"
       inkscape:export-filename="/home/torben/projects/teamadminhelper/ascetic/logo_cat_large.png"
       inkscape:export-xdpi="708.21997"
       inkscape:export-ydpi="708.21997" />
    <path
       style="fill:#ff6600;stroke:#ff6600;stroke-width:0.54105818000000006px;stroke-linecap:butt;stroke-linejoin:miter;stroke-opacity:1"
       d="m 254.64005,657.38545 c -8.72073,-4.53789 -11.71373,-2.18102 -15.23167,-0.45605 1.82779,2.31312 1.87581,4.84692 15.23167,0.45605 z"
       id="path3018-9-8-8"
       inkscape:connector-curvature="0"
       sodipodi:nodetypes="ccc"
       inkscape:export-xdpi="708.21997"
       inkscape:export-ydpi="708.21997"
       inkscape:export-filename="/home/torben/projects/teamadminhelper/ascetic/logo_cat_large.png" />
    <text
       xml:space="preserve"
       style="font-size:2.24064732px;font-style:normal;font-weight:normal;line-height:125%;letter-spacing:0px;word-spacing:0px;fill:#ff6600;fill-opacity:1;stroke:none;font-family:Sans"
       x="-211.89601"
       y="693.03387"
       id="text3786-0"
       sodipodi:linespacing="125%"
       transform="matrix(0.75678329,-0.63495414,0.60142143,0.81677936,0,0)"
       inkscape:export-filename="/home/torben/projects/teamadminhelper/ascetic/logo_cat_large.png"
       inkscape:export-xdpi="708.21997"
       inkscape:export-ydpi="708.21997"><tspan
         sodipodi:role="line"
         id="tspan3788-9"
         x="-211.89601"
         y="693.03387">Torben Lauritzen 2012</tspan></text>
  </g>
</svg>
